<svg width="88" height="68" viewBox="0 0 88 68" fill="none" xmlns="http://www.w3.org/2000/svg">
<path d="M21.48 5.2V-1.90735e-06H0.32V28H6.8V17.8H19.76V12.6H6.8V5.2H21.48ZM38.3069 28.48C46.2669 28.48 50.9869 23.92 50.9869 15.68V-1.90735e-06H44.5869V15.44C44.5869 20.76 42.3069 22.96 38.3469 22.96C34.4269 22.96 32.1069 20.76 32.1069 15.44V-1.90735e-06H25.6269V15.68C25.6269 23.92 30.3469 28.48 38.3069 28.48ZM76.6703 -1.90735e-06V17L62.7503 -1.90735e-06H57.3903V28H63.7903V11L77.7503 28H83.0703V-1.90735e-06H76.6703ZM19.52 39V50.04H6.8V39H0.32V67H6.8V55.52H19.52V67H26V39H19.52ZM53.5447 67H60.3447L47.8247 39H41.4247L28.9447 67H35.5847L38.0647 61H51.0647L53.5447 67ZM40.1447 56.08L44.5847 45.36L49.0247 56.08H40.1447ZM75.1038 67.48C83.0638 67.48 87.7838 62.92 87.7838 54.68V39H81.3837V54.44C81.3837 59.76 79.1038 61.96 75.1438 61.96C71.2238 61.96 68.9038 59.76 68.9038 54.44V39H62.4238V54.68C62.4238 62.92 67.1438 67.48 75.1038 67.48Z" fill="#101010"/>
</svg>
