<svg width="24" height="30" viewBox="0 0 24 30" fill="none" xmlns="http://www.w3.org/2000/svg">
<mask id="path-1-outside-1_16_2396" maskUnits="userSpaceOnUse" x="-2" y="-1" width="27" height="32" fill="black">
<rect fill="white" x="-2" y="-1" width="27" height="32"/>
<path d="M11.52 29.48C19.52 29.48 23.4 25.48 23.4 20.8C23.4 10.52 7.12 14.08 7.12 8.92C7.12 7.16 8.6 5.72 12.44 5.72C14.92 5.72 17.6 6.44 20.2 7.92L22.2 3C19.6 1.36 16 0.52 12.48 0.52C4.52 0.52 0.68 4.48 0.68 9.24C0.68 19.64 16.96 16.04 16.96 21.28C16.96 23 15.4 24.28 11.56 24.28C8.2 24.28 4.68 23.08 2.32 21.36L0.12 26.24C2.6 28.16 7.08 29.48 11.52 29.48Z"/>
</mask>
<path d="M20.2 7.92L19.7053 8.78906L20.6968 9.35344L21.1264 8.29658L20.2 7.92ZM22.2 3L23.1264 3.37658L23.4417 2.60091L22.7335 2.1542L22.2 3ZM2.32 21.36L2.90899 20.5519L1.91424 19.8269L1.40836 20.949L2.32 21.36ZM0.12 26.24L-0.791642 25.829L-1.11575 26.548L-0.492173 27.0307L0.12 26.24ZM11.52 30.48C15.6782 30.48 18.8915 29.4405 21.0869 27.6741C23.2982 25.8949 24.4 23.4357 24.4 20.8H22.4C22.4 22.8443 21.5618 24.7251 19.8331 26.1159C18.0885 27.5196 15.3618 28.48 11.52 28.48V30.48ZM24.4 20.8C24.4 17.9118 23.2324 15.92 21.4719 14.5445C19.7715 13.2159 17.5617 12.496 15.5076 11.9711C13.3545 11.4209 11.4743 11.0994 10.0041 10.5672C9.29029 10.3088 8.80253 10.0406 8.5028 9.76014C8.23702 9.51143 8.12 9.25866 8.12 8.92H6.12C6.12 9.87134 6.51173 10.6361 7.13626 11.2205C7.72684 11.7731 8.51096 12.1537 9.32337 12.4478C10.9057 13.0206 13.0955 13.4191 15.0124 13.9089C17.0283 14.424 18.8885 15.0641 20.2406 16.1205C21.5326 17.13 22.4 18.5482 22.4 20.8H24.4ZM8.12 8.92C8.12 8.36022 8.33508 7.87398 8.90364 7.48602C9.52108 7.0647 10.6219 6.72 12.44 6.72V4.72C10.4181 4.72 8.85892 5.09529 7.77636 5.83398C6.64492 6.60602 6.12 7.71978 6.12 8.92H8.12ZM12.44 6.72C14.7278 6.72 17.2389 7.38509 19.7053 8.78906L20.6947 7.05093C17.9611 5.49491 15.1122 4.72 12.44 4.72V6.72ZM21.1264 8.29658L23.1264 3.37658L21.2736 2.62342L19.2736 7.54342L21.1264 8.29658ZM22.7335 2.1542C19.9331 0.387761 16.134 -0.48 12.48 -0.48V1.52C15.866 1.52 19.267 2.33224 21.6665 3.8458L22.7335 2.1542ZM12.48 -0.48C8.34324 -0.48 5.14755 0.548919 2.96523 2.31822C0.765657 4.1015 -0.32 6.57211 -0.32 9.24H1.68C1.68 7.14789 2.51434 5.25849 4.22477 3.87178C5.95245 2.47108 8.65676 1.52 12.48 1.52V-0.48ZM-0.32 9.24C-0.32 12.1537 0.843647 14.1647 2.60349 15.5563C4.30401 16.9009 6.51447 17.6304 8.56908 18.163C9.59779 18.4297 10.6476 18.6608 11.5767 18.8826C12.5266 19.1094 13.3674 19.3301 14.0708 19.5891C14.7835 19.8514 15.271 20.1238 15.5713 20.4094C15.8384 20.6634 15.96 20.9258 15.96 21.28H17.96C17.96 20.3242 17.5729 19.5529 16.9496 18.9601C16.3596 18.399 15.5753 18.0117 14.7617 17.7122C13.9389 17.4093 12.999 17.1659 12.0411 16.9373C11.0624 16.7036 10.0772 16.4878 9.07092 16.227C7.05553 15.7046 5.19599 15.0566 3.84401 13.9875C2.55135 12.9653 1.68 11.5263 1.68 9.24H-0.32ZM15.96 21.28C15.96 21.78 15.7612 22.2134 15.1762 22.5732C14.5314 22.9697 13.3951 23.28 11.56 23.28V25.28C13.5649 25.28 15.1286 24.9503 16.2238 24.2768C17.3789 23.5666 17.96 22.5 17.96 21.28H15.96ZM11.56 23.28C8.40805 23.28 5.095 22.1451 2.90899 20.5519L1.73101 22.1681C4.26501 24.0149 7.99195 25.28 11.56 25.28V23.28ZM1.40836 20.949L-0.791642 25.829L1.03164 26.651L3.23164 21.771L1.40836 20.949ZM-0.492173 27.0307C2.21446 29.1262 6.9336 30.48 11.52 30.48V28.48C7.2264 28.48 2.98554 27.1938 0.732173 25.4493L-0.492173 27.0307Z" fill="#101010" mask="url(#path-1-outside-1_16_2396)"/>
</svg>
